<svg width="51" height="12" viewBox="0 0 51 12" fill="none" xmlns="http://www.w3.org/2000/svg">
<path opacity="0.5" d="M7.52984 2.95738H6.20029C6.14915 2.67329 6.05398 2.42329 5.91478 2.20738C5.77557 1.99147 5.60512 1.80824 5.40341 1.65767C5.20171 1.5071 4.97586 1.39346 4.72586 1.31676C4.4787 1.24005 4.21591 1.2017 3.93751 1.2017C3.43466 1.2017 2.98438 1.32812 2.58665 1.58096C2.19177 1.8338 1.87927 2.20454 1.64915 2.69318C1.42188 3.18182 1.30824 3.77841 1.30824 4.48295C1.30824 5.19318 1.42188 5.79261 1.64915 6.28125C1.87927 6.76988 2.19319 7.1392 2.59091 7.3892C2.98864 7.6392 3.43609 7.7642 3.93324 7.7642C4.20881 7.7642 4.47018 7.72727 4.71734 7.65341C4.96734 7.5767 5.19319 7.46449 5.39489 7.31676C5.5966 7.16903 5.76705 6.98863 5.90626 6.77557C6.0483 6.55966 6.14631 6.3125 6.20029 6.03409L7.52984 6.03835C7.45881 6.46733 7.32103 6.86221 7.11648 7.22301C6.91478 7.58096 6.65484 7.89062 6.33665 8.15199C6.02131 8.41051 5.66052 8.61079 5.25427 8.75284C4.84802 8.89488 4.40484 8.96591 3.92472 8.96591C3.16904 8.96591 2.49574 8.78693 1.90484 8.42897C1.31393 8.06818 0.848017 7.55255 0.507108 6.8821C0.16904 6.21164 5.57303e-06 5.41193 5.57303e-06 4.48295C5.57303e-06 3.55113 0.17046 2.75142 0.511369 2.0838C0.852278 1.41335 1.31819 0.899145 1.9091 0.54119C2.50001 0.180395 3.17188 -3.09944e-06 3.92472 -3.09944e-06C4.38779 -3.09944e-06 4.81961 0.0667584 5.22018 0.200281C5.62359 0.330963 5.9858 0.524145 6.30682 0.779827C6.62785 1.03267 6.89347 1.34233 7.1037 1.7088C7.31393 2.07244 7.45597 2.48863 7.52984 2.95738ZM9.0032 11.3011V2.30113H10.2475V3.36221H10.3541C10.4279 3.22585 10.5345 3.06818 10.6737 2.8892C10.8129 2.71022 11.006 2.55397 11.2532 2.42045C11.5004 2.28409 11.8271 2.21591 12.2333 2.21591C12.7617 2.21591 13.2333 2.34943 13.6481 2.61647C14.0629 2.88352 14.3881 3.26846 14.6239 3.7713C14.8626 4.27414 14.9819 4.87926 14.9819 5.58664C14.9819 6.29403 14.864 6.90057 14.6282 7.40625C14.3924 7.90909 14.0685 8.29687 13.6566 8.5696C13.2447 8.83949 12.7745 8.97443 12.2461 8.97443C11.8484 8.97443 11.5231 8.90767 11.2702 8.77414C11.0202 8.64062 10.8242 8.48437 10.6822 8.30539C10.5401 8.12642 10.4308 7.96733 10.3541 7.82812H10.2773V11.3011H9.0032ZM10.2518 5.57386C10.2518 6.03409 10.3185 6.4375 10.4521 6.78409C10.5856 7.13068 10.7788 7.40199 11.0316 7.59801C11.2845 7.79119 11.5941 7.88778 11.9606 7.88778C12.3413 7.88778 12.6595 7.78693 12.9151 7.58522C13.1708 7.38068 13.364 7.10369 13.4947 6.75426C13.6282 6.40483 13.695 6.01136 13.695 5.57386C13.695 5.14204 13.6296 4.75426 13.4989 4.41051C13.3711 4.06676 13.1779 3.79545 12.9194 3.59659C12.6637 3.39772 12.3441 3.29829 11.9606 3.29829C11.5913 3.29829 11.2788 3.39346 11.0231 3.5838C10.7702 3.77414 10.5785 4.03977 10.4478 4.38068C10.3171 4.72159 10.2518 5.11932 10.2518 5.57386ZM19.2305 8.97869C18.5856 8.97869 18.0302 8.84091 17.5643 8.56534C17.1012 8.28693 16.7433 7.8963 16.4904 7.39346C16.2404 6.88778 16.1154 6.29545 16.1154 5.61647C16.1154 4.94602 16.2404 4.35511 16.4904 3.84375C16.7433 3.33238 17.0955 2.93324 17.5472 2.6463C18.0018 2.35937 18.533 2.21591 19.141 2.21591C19.5103 2.21591 19.8683 2.27699 20.2148 2.39914C20.5614 2.5213 20.8725 2.71307 21.1481 2.97443C21.4237 3.23579 21.641 3.57528 21.8001 3.99289C21.9592 4.40767 22.0387 4.91193 22.0387 5.50568V5.95738H16.8356V5.00284H20.7901C20.7901 4.66761 20.722 4.37074 20.5856 4.11221C20.4492 3.85085 20.2575 3.64488 20.0103 3.49432C19.766 3.34375 19.4791 3.26846 19.1495 3.26846C18.7916 3.26846 18.4791 3.35653 18.212 3.53267C17.9478 3.70596 17.7433 3.93324 17.5984 4.21449C17.4563 4.49289 17.3853 4.79545 17.3853 5.12216V5.86789C17.3853 6.30539 17.462 6.67755 17.6154 6.98437C17.7717 7.29119 17.989 7.52557 18.2674 7.6875C18.5458 7.84659 18.8711 7.92613 19.2433 7.92613C19.4847 7.92613 19.7049 7.89204 19.9038 7.82386C20.1026 7.75284 20.2745 7.64772 20.4194 7.50852C20.5643 7.36932 20.6751 7.19744 20.7518 6.99289L21.9577 7.21022C21.8612 7.56534 21.6879 7.87642 21.4379 8.14346C21.1907 8.40767 20.8796 8.61363 20.5046 8.76136C20.1325 8.90625 19.7077 8.97869 19.2305 8.97869ZM22.8132 10.7344V7.74289H23.3459C23.4822 7.61789 23.5973 7.46875 23.6911 7.29545C23.7876 7.12216 23.8686 6.91619 23.934 6.67755C24.0021 6.43892 24.059 6.16051 24.1044 5.84233C24.1499 5.5213 24.1896 5.15483 24.2237 4.74289L24.4283 2.30113H28.8771V7.74289H29.8828V10.7344H28.6385V8.84659H24.0746V10.7344H22.8132ZM24.7095 7.74289H27.6328V3.39204H25.5703L25.434 4.74289C25.3686 5.43039 25.2862 6.02699 25.1868 6.53267C25.0874 7.03551 24.9283 7.43892 24.7095 7.74289ZM35.5643 5.02414V6.12784H32.0188V5.02414H35.5643ZM32.3768 2.30113V8.84659H31.1282V2.30113H32.3768ZM36.4549 2.30113V8.84659H35.2106V2.30113H36.4549ZM39.408 7.06108L42.293 2.30113H43.6651V8.84659H42.4166V4.08238L39.5444 8.84659H38.1595V2.30113H39.408V7.06108ZM46.6268 7.06108L49.5117 2.30113H50.8839V8.84659H49.6353V4.08238L46.7631 8.84659H45.3782V2.30113H46.6268V7.06108ZM48.9663 0.0852239H50.0146C50.0146 0.565338 49.8441 0.955963 49.5032 1.2571C49.1651 1.55539 48.7077 1.70454 48.131 1.70454C47.5572 1.70454 47.1012 1.55539 46.7631 1.2571C46.4251 0.955963 46.256 0.565338 46.256 0.0852239H47.3001C47.3001 0.298292 47.3626 0.487213 47.4876 0.651985C47.6126 0.813917 47.8271 0.894883 48.131 0.894883C48.4293 0.894883 48.6424 0.813917 48.7702 0.651985C48.9009 0.490054 48.9663 0.301133 48.9663 0.0852239Z" fill="#1C1C1C"/>
</svg>
